<svg width="157" height="137" viewBox="0 0 157 137" fill="none" xmlns="http://www.w3.org/2000/svg">
<g opacity="0.8" clip-path="url(#clip0_2234_8808)">
<path d="M5.3356 47.2957C5.3356 48.8151 4.19226 49.9546 2.6678 49.9546C1.14334 49.9546 0 48.8151 0 47.2957C0 45.7763 1.14334 44.6367 2.6678 44.6367C4.19226 44.6367 5.3356 45.9029 5.3356 47.2957Z" fill="white"/>
<path d="M28.0753 47.2957C28.0753 48.8151 26.932 49.9546 25.4075 49.9546C23.8831 49.9546 22.7397 48.8151 22.7397 47.2957C22.7397 45.7763 23.8831 44.6367 25.4075 44.6367C26.805 44.6367 28.0753 45.9029 28.0753 47.2957Z" fill="white"/>
<path d="M50.6881 47.2957C50.6881 48.8151 49.5448 49.9546 48.0203 49.9546C46.4959 49.9546 45.3525 48.8151 45.3525 47.2957C45.3525 45.7763 46.4959 44.6367 48.0203 44.6367C49.5448 44.6367 50.6881 45.9029 50.6881 47.2957Z" fill="white"/>
<path d="M73.4279 47.2957C73.4279 48.8151 72.2845 49.9546 70.7601 49.9546C69.2356 49.9546 68.0923 48.8151 68.0923 47.2957C68.0923 45.7763 69.2356 44.6367 70.7601 44.6367C72.2845 44.6367 73.4279 45.9029 73.4279 47.2957Z" fill="white"/>
<path d="M96.1676 47.2957C96.1676 48.8151 95.0243 49.9546 93.4998 49.9546C91.9754 49.9546 90.832 48.8151 90.832 47.2957C90.832 45.7763 91.9754 44.6367 93.4998 44.6367C94.8972 44.6367 96.1676 45.9029 96.1676 47.2957Z" fill="white"/>
<path d="M118.908 47.2957C118.908 48.8151 117.765 49.9546 116.24 49.9546C114.716 49.9546 113.572 48.8151 113.572 47.2957C113.572 45.7763 114.716 44.6367 116.24 44.6367C117.765 44.6367 118.908 45.9029 118.908 47.2957Z" fill="white"/>
<path d="M141.52 47.2957C141.52 48.8151 140.377 49.9546 138.852 49.9546C137.328 49.9546 136.185 48.8151 136.185 47.2957C136.185 45.7763 137.328 44.6367 138.852 44.6367C140.377 44.6367 141.52 45.9029 141.52 47.2957Z" fill="white"/>
<path d="M5.3356 69.614C5.3356 71.1335 4.19226 72.273 2.6678 72.273C1.14334 72.273 0 71.1335 0 69.614C0 68.0946 1.14334 66.9551 2.6678 66.9551C4.19226 66.9551 5.3356 68.0946 5.3356 69.614Z" fill="white"/>
<path d="M28.0753 69.614C28.0753 71.1335 26.932 72.273 25.4075 72.273C23.8831 72.273 22.7397 71.1335 22.7397 69.614C22.7397 68.0946 23.8831 66.9551 25.4075 66.9551C26.805 66.9551 28.0753 68.0946 28.0753 69.614Z" fill="white"/>
<path d="M50.6881 69.614C50.6881 71.1335 49.5448 72.273 48.0203 72.273C46.4959 72.273 45.3525 71.1335 45.3525 69.614C45.3525 68.0946 46.4959 66.9551 48.0203 66.9551C49.5448 66.9551 50.6881 68.0946 50.6881 69.614Z" fill="white"/>
<path d="M73.4279 69.614C73.4279 71.1335 72.2845 72.273 70.7601 72.273C69.2356 72.273 68.0923 71.1335 68.0923 69.614C68.0923 68.0946 69.2356 66.9551 70.7601 66.9551C72.2845 66.9551 73.4279 68.0946 73.4279 69.614Z" fill="white"/>
<path d="M96.1676 69.614C96.1676 71.1335 95.0243 72.273 93.4998 72.273C91.9754 72.273 90.832 71.1335 90.832 69.614C90.832 68.0946 91.9754 66.9551 93.4998 66.9551C94.8972 66.9551 96.1676 68.0946 96.1676 69.614Z" fill="white"/>
<path d="M118.908 69.614C118.908 71.1335 117.765 72.273 116.24 72.273C114.716 72.273 113.572 71.1335 113.572 69.614C113.572 68.0946 114.716 66.9551 116.24 66.9551C117.765 66.9551 118.908 68.0946 118.908 69.614Z" fill="white"/>
<path d="M141.52 69.614C141.52 71.1335 140.377 72.273 138.852 72.273C137.328 72.273 136.185 71.1335 136.185 69.614C136.185 68.0946 137.328 66.9551 138.852 66.9551C140.377 66.9551 141.52 68.0946 141.52 69.614Z" fill="white"/>
<path d="M5.3356 2.65896C5.3356 4.17837 4.19226 5.31793 2.6678 5.31793C1.14334 5.31793 0 4.17837 0 2.65896C0 1.13956 1.14334 0 2.6678 0C4.19226 0 5.3356 1.13956 5.3356 2.65896Z" fill="white"/>
<path d="M28.0753 2.65896C28.0753 4.17837 26.932 5.31793 25.4075 5.31793C23.8831 5.31793 22.7397 4.17837 22.7397 2.65896C22.7397 1.13956 23.8831 0 25.4075 0C26.805 0 28.0753 1.13956 28.0753 2.65896Z" fill="white"/>
<path d="M50.6881 2.65896C50.6881 4.17837 49.5448 5.31793 48.0203 5.31793C46.4959 5.31793 45.3525 4.17837 45.3525 2.65896C45.3525 1.13956 46.6229 0 48.0203 0C49.5448 0 50.6881 1.13956 50.6881 2.65896Z" fill="white"/>
<path d="M73.4279 2.65896C73.4279 4.17837 72.2845 5.31793 70.7601 5.31793C69.2356 5.31793 68.0923 4.17837 68.0923 2.65896C68.0923 1.13956 69.3627 0 70.7601 0C72.1575 0 73.4279 1.13956 73.4279 2.65896Z" fill="white"/>
<path d="M96.1676 2.65896C96.1676 4.17837 95.0243 5.31793 93.4998 5.31793C91.9754 5.31793 90.832 4.17837 90.832 2.65896C90.832 1.13956 91.9754 0 93.4998 0C94.8972 0 96.1676 1.13956 96.1676 2.65896Z" fill="white"/>
<path d="M118.908 2.65896C118.908 4.17837 117.765 5.31793 116.24 5.31793C114.716 5.31793 113.572 4.17837 113.572 2.65896C113.572 1.13956 114.716 0 116.24 0C117.765 0 118.908 1.13956 118.908 2.65896Z" fill="white"/>
<path d="M141.52 2.65896C141.52 4.17837 140.377 5.31793 138.852 5.31793C137.328 5.31793 136.185 4.17837 136.185 2.65896C136.185 1.13956 137.328 0 138.852 0C140.377 0 141.52 1.13956 141.52 2.65896Z" fill="white"/>
<path d="M5.3356 24.9773C5.3356 26.4967 4.19226 27.6363 2.6678 27.6363C1.14334 27.6363 0 26.3701 0 24.9773C0 23.4579 1.14334 22.3184 2.6678 22.3184C4.19226 22.3184 5.3356 23.4579 5.3356 24.9773Z" fill="white"/>
<path d="M28.0753 24.9773C28.0753 26.4967 26.932 27.6363 25.4075 27.6363C23.8831 27.6363 22.7397 26.4967 22.7397 24.9773C22.7397 23.4579 23.8831 22.3184 25.4075 22.3184C26.805 22.3184 28.0753 23.4579 28.0753 24.9773Z" fill="white"/>
<path d="M50.6881 24.9773C50.6881 26.4967 49.5448 27.6363 48.0203 27.6363C46.4959 27.6363 45.3525 26.4967 45.3525 24.9773C45.3525 23.4579 46.4959 22.3184 48.0203 22.3184C49.5448 22.3184 50.6881 23.4579 50.6881 24.9773Z" fill="white"/>
<path d="M73.4279 24.9773C73.4279 26.4967 72.2845 27.6363 70.7601 27.6363C69.2356 27.6363 68.0923 26.4967 68.0923 24.9773C68.0923 23.4579 69.2356 22.3184 70.7601 22.3184C72.2845 22.3184 73.4279 23.4579 73.4279 24.9773Z" fill="white"/>
<path d="M96.1676 24.9773C96.1676 26.4967 95.0243 27.6363 93.4998 27.6363C91.9754 27.6363 90.832 26.4967 90.832 24.9773C90.832 23.4579 91.9754 22.3184 93.4998 22.3184C94.8972 22.3184 96.1676 23.4579 96.1676 24.9773Z" fill="white"/>
<path d="M118.908 24.9773C118.908 26.4967 117.765 27.6363 116.24 27.6363C114.716 27.6363 113.572 26.4967 113.572 24.9773C113.572 23.4579 114.716 22.3184 116.24 22.3184C117.765 22.3184 118.908 23.4579 118.908 24.9773Z" fill="white"/>
<path d="M141.52 24.9773C141.52 26.4967 140.377 27.6363 138.852 27.6363C137.328 27.6363 136.185 26.4967 136.185 24.9773C136.185 23.4579 137.328 22.3184 138.852 22.3184C140.377 22.3184 141.52 23.4579 141.52 24.9773Z" fill="white"/>
<path d="M5.3356 91.9324C5.3356 93.4518 4.19226 94.5914 2.6678 94.5914C1.14334 94.5914 0 93.4518 0 91.9324C0 90.413 1.14334 89.2734 2.6678 89.2734C4.19226 89.2734 5.3356 90.5396 5.3356 91.9324Z" fill="white"/>
<path d="M28.0753 91.9324C28.0753 93.4518 26.932 94.5914 25.4075 94.5914C23.8831 94.5914 22.7397 93.4518 22.7397 91.9324C22.7397 90.413 23.8831 89.2734 25.4075 89.2734C26.805 89.2734 28.0753 90.5396 28.0753 91.9324Z" fill="white"/>
<path d="M50.6881 91.9324C50.6881 93.4518 49.5448 94.5914 48.0203 94.5914C46.4959 94.5914 45.3525 93.4518 45.3525 91.9324C45.3525 90.413 46.4959 89.2734 48.0203 89.2734C49.5448 89.2734 50.6881 90.5396 50.6881 91.9324Z" fill="white"/>
<path d="M73.4279 91.9324C73.4279 93.4518 72.2845 94.5914 70.7601 94.5914C69.2356 94.5914 68.0923 93.4518 68.0923 91.9324C68.0923 90.413 69.2356 89.2734 70.7601 89.2734C72.2845 89.2734 73.4279 90.5396 73.4279 91.9324Z" fill="white"/>
<path d="M96.1676 91.9324C96.1676 93.4518 95.0243 94.5914 93.4998 94.5914C91.9754 94.5914 90.832 93.4518 90.832 91.9324C90.832 90.413 91.9754 89.2734 93.4998 89.2734C94.8972 89.2734 96.1676 90.5396 96.1676 91.9324Z" fill="white"/>
<path d="M118.908 91.9324C118.908 93.4518 117.765 94.5914 116.24 94.5914C114.716 94.5914 113.572 93.4518 113.572 91.9324C113.572 90.413 114.716 89.2734 116.24 89.2734C117.765 89.2734 118.908 90.5396 118.908 91.9324Z" fill="white"/>
<path d="M141.52 91.9324C141.52 93.4518 140.377 94.5914 138.852 94.5914C137.328 94.5914 136.185 93.4518 136.185 91.9324C136.185 90.413 137.328 89.2734 138.852 89.2734C140.377 89.2734 141.52 90.5396 141.52 91.9324Z" fill="white"/>
<path d="M5.3356 114.251C5.3356 115.77 4.19226 116.91 2.6678 116.91C1.14334 116.91 0 115.77 0 114.251C0 112.731 1.14334 111.592 2.6678 111.592C4.19226 111.592 5.3356 112.731 5.3356 114.251Z" fill="white"/>
<path d="M28.0753 114.251C28.0753 115.77 26.932 116.91 25.4075 116.91C23.8831 116.91 22.7397 115.77 22.7397 114.251C22.7397 112.731 23.8831 111.592 25.4075 111.592C26.805 111.592 28.0753 112.731 28.0753 114.251Z" fill="white"/>
<path d="M50.6881 114.251C50.6881 115.77 49.5448 116.91 48.0203 116.91C46.4959 116.91 45.3525 115.77 45.3525 114.251C45.3525 112.731 46.4959 111.592 48.0203 111.592C49.5448 111.592 50.6881 112.731 50.6881 114.251Z" fill="white"/>
<path d="M70.7601 116.91C72.2335 116.91 73.4279 115.719 73.4279 114.251C73.4279 112.782 72.2335 111.592 70.7601 111.592C69.2867 111.592 68.0923 112.782 68.0923 114.251C68.0923 115.719 69.2867 116.91 70.7601 116.91Z" fill="white"/>
<path d="M96.1676 114.251C96.1676 115.77 95.0243 116.91 93.4998 116.91C91.9754 116.91 90.832 115.77 90.832 114.251C90.832 112.731 91.9754 111.592 93.4998 111.592C94.8972 111.592 96.1676 112.731 96.1676 114.251Z" fill="white"/>
<path d="M118.908 114.251C118.908 115.77 117.765 116.91 116.24 116.91C114.716 116.91 113.572 115.77 113.572 114.251C113.572 112.731 114.716 111.592 116.24 111.592C117.765 111.592 118.908 112.731 118.908 114.251Z" fill="white"/>
<path d="M141.52 114.251C141.52 115.77 140.377 116.91 138.852 116.91C137.328 116.91 136.185 115.77 136.185 114.251C136.185 112.731 137.328 111.592 138.852 111.592C140.377 111.592 141.52 112.731 141.52 114.251Z" fill="white"/>
<path d="M5.3356 136.569C5.3356 138.089 4.19226 139.228 2.6678 139.228C1.14334 139.228 0 138.089 0 136.569C0 135.05 1.14334 133.91 2.6678 133.91C4.19226 133.91 5.3356 135.05 5.3356 136.569Z" fill="white"/>
<path d="M28.0753 136.569C28.0753 138.089 26.932 139.228 25.4075 139.228C23.8831 139.228 22.7397 138.089 22.7397 136.569C22.7397 135.05 23.8831 133.91 25.4075 133.91C26.805 133.91 28.0753 135.05 28.0753 136.569Z" fill="white"/>
<path d="M50.6881 136.569C50.6881 138.089 49.5448 139.228 48.0203 139.228C46.4959 139.228 45.3525 138.089 45.3525 136.569C45.3525 135.05 46.4959 133.91 48.0203 133.91C49.5448 133.91 50.6881 135.05 50.6881 136.569Z" fill="white"/>
<path d="M73.4279 136.569C73.4279 138.089 72.2845 139.228 70.7601 139.228C69.2356 139.228 68.0923 138.089 68.0923 136.569C68.0923 135.05 69.2356 133.91 70.7601 133.91C72.2845 133.91 73.4279 135.05 73.4279 136.569Z" fill="white"/>
<path d="M96.1676 136.569C96.1676 138.089 95.0243 139.228 93.4998 139.228C91.9754 139.228 90.832 138.089 90.832 136.569C90.832 135.05 91.9754 133.91 93.4998 133.91C94.8972 133.91 96.1676 135.05 96.1676 136.569Z" fill="white"/>
<path d="M118.908 136.569C118.908 138.089 117.765 139.228 116.24 139.228C114.716 139.228 113.572 138.089 113.572 136.569C113.572 135.05 114.716 133.91 116.24 133.91C117.765 133.91 118.908 135.05 118.908 136.569Z" fill="white"/>
<path d="M141.52 136.569C141.52 138.089 140.377 139.228 138.852 139.228C137.328 139.228 136.185 138.089 136.185 136.569C136.185 135.05 137.328 133.91 138.852 133.91C140.377 133.91 141.52 135.05 141.52 136.569Z" fill="white"/>
</g>
<defs>
<clipPath id="clip0_2234_8808">
<rect width="187" height="137" fill="white"/>
</clipPath>
</defs>
</svg>
