<svg width="59" height="25" viewBox="0 0 59 25" fill="none" xmlns="http://www.w3.org/2000/svg">
<path d="M6.86506 10.5298C6.78267 10.2713 6.67188 10.0398 6.53267 9.83523C6.39631 9.62784 6.23295 9.4517 6.04261 9.30682C5.85227 9.15909 5.63494 9.04687 5.39062 8.97017C5.14915 8.89347 4.88352 8.85511 4.59375 8.85511C4.10227 8.85511 3.65909 8.98153 3.2642 9.23438C2.86932 9.48722 2.55682 9.85795 2.3267 10.3466C2.09943 10.8324 1.9858 11.4276 1.9858 12.1321C1.9858 12.8395 2.10085 13.4375 2.33097 13.9261C2.56108 14.4148 2.87642 14.7855 3.27699 15.0384C3.67756 15.2912 4.13352 15.4176 4.64489 15.4176C5.11932 15.4176 5.53267 15.321 5.88494 15.1278C6.24006 14.9347 6.5142 14.6619 6.70739 14.3097C6.90341 13.9545 7.00142 13.5369 7.00142 13.0568L7.34233 13.1207H4.84517V12.0341H8.27557V13.027C8.27557 13.7599 8.11932 14.3963 7.80682 14.9361C7.49716 15.473 7.06818 15.8878 6.51989 16.1804C5.97443 16.473 5.34943 16.6193 4.64489 16.6193C3.85511 16.6193 3.16193 16.4375 2.56534 16.0739C1.97159 15.7102 1.50852 15.1946 1.17614 14.527C0.84375 13.8565 0.677557 13.0611 0.677557 12.1406C0.677557 11.4446 0.774148 10.8196 0.96733 10.2656C1.16051 9.71165 1.43182 9.24148 1.78125 8.85511C2.13352 8.46591 2.54688 8.16903 3.02131 7.96449C3.49858 7.7571 4.01989 7.65341 4.58523 7.65341C5.05682 7.65341 5.49574 7.72301 5.90199 7.86222C6.31108 8.00142 6.67472 8.19886 6.9929 8.45455C7.31392 8.71023 7.57955 9.0142 7.78977 9.36648C8 9.71591 8.14205 10.1037 8.21591 10.5298H6.86506ZM12.6658 16.6321C12.021 16.6321 11.4656 16.4943 10.9996 16.2188C10.5366 15.9403 10.1786 15.5497 9.92578 15.0469C9.67578 14.5412 9.55078 13.9489 9.55078 13.2699C9.55078 12.5994 9.67578 12.0085 9.92578 11.4972C10.1786 10.9858 10.5309 10.5866 10.9826 10.2997C11.4371 10.0128 11.9684 9.86932 12.5763 9.86932C12.9457 9.86932 13.3036 9.9304 13.6502 10.0526C13.9968 10.1747 14.3079 10.3665 14.5835 10.6278C14.859 10.8892 15.0763 11.2287 15.2354 11.6463C15.3945 12.0611 15.4741 12.5653 15.4741 13.1591V13.6108H10.271V12.6562H14.2255C14.2255 12.321 14.1573 12.0241 14.021 11.7656C13.8846 11.5043 13.6928 11.2983 13.4457 11.1477C13.2013 10.9972 12.9144 10.9219 12.5849 10.9219C12.2269 10.9219 11.9144 11.0099 11.6474 11.1861C11.3832 11.3594 11.1786 11.5866 11.0337 11.8679C10.8917 12.1463 10.8207 12.4489 10.8207 12.7756V13.5213C10.8207 13.9588 10.8974 14.331 11.0508 14.6378C11.207 14.9446 11.4244 15.179 11.7028 15.3409C11.9812 15.5 12.3065 15.5795 12.6786 15.5795C12.9201 15.5795 13.1403 15.5455 13.3391 15.4773C13.538 15.4062 13.7099 15.3011 13.8548 15.1619C13.9996 15.0227 14.1104 14.8509 14.1871 14.6463L15.3931 14.8636C15.2965 15.2187 15.1232 15.5298 14.8732 15.7969C14.6261 16.0611 14.315 16.267 13.94 16.4148C13.5678 16.5597 13.1431 16.6321 12.6658 16.6321ZM16.8878 16.5V9.95455H18.1193V10.9943H18.1875C18.3068 10.642 18.517 10.3651 18.8182 10.1634C19.1222 9.95881 19.4659 9.85653 19.8494 9.85653C19.929 9.85653 20.0227 9.85937 20.1307 9.86506C20.2415 9.87074 20.3281 9.87784 20.3906 9.88636V11.1051C20.3395 11.0909 20.2486 11.0753 20.1179 11.0582C19.9872 11.0384 19.8565 11.0284 19.7259 11.0284C19.4247 11.0284 19.1563 11.0923 18.9205 11.2202C18.6875 11.3452 18.5028 11.5199 18.3665 11.7443C18.2301 11.9659 18.1619 12.2187 18.1619 12.5028V16.5H16.8878Z" fill="#333333"/>
<path d="M37 22.5C42.5228 22.5 47 18.0228 47 12.5C47 6.97715 42.5228 2.5 37 2.5C31.4772 2.5 27 6.97715 27 12.5C27 18.0228 31.4772 22.5 37 22.5Z" stroke="#333333" stroke-width="2" stroke-linecap="round" stroke-linejoin="round"/>
<path d="M27 12.5H47" stroke="#333333" stroke-width="2" stroke-linecap="round" stroke-linejoin="round"/>
<path d="M37 2.5C39.5013 5.23835 40.9228 8.79203 41 12.5C40.9228 16.208 39.5013 19.7616 37 22.5C34.4987 19.7616 33.0772 16.208 33 12.5C33.0772 8.79203 34.4987 5.23835 37 2.5V2.5Z" stroke="#333333" stroke-width="2" stroke-linecap="round" stroke-linejoin="round"/>
<path d="M56 15.5L58.5981 11H53.4019L56 15.5Z" fill="#333333"/>
</svg>
